<svg id="al93k4as9h1z" version="1.1" xmlns="http://www.w3.org/2000/svg" xmlns:xlink="http://www.w3.org/1999/xlink" width="204.05584154885912" height="60.77014198908731" viewBox="0 0 204.05584154885912 60.77014198908731" style="" ><svg width="75.96267748635914" height="75.96267748635914" y="-7.596267748635917" x="0" fill="#4cb5ab" ><svg xmlns:dc="http://purl.org/dc/elements/1.1/" xmlns:cc="http://creativecommons.org/ns#" xmlns:rdf="http://www.w3.org/1999/02/22-rdf-syntax-ns#" xmlns:svg="http://www.w3.org/2000/svg" xmlns="http://www.w3.org/2000/svg" xmlns:sodipodi="http://sodipodi.sourceforge.net/DTD/sodipodi-0.dtd" xmlns:inkscape="http://www.inkscape.org/namespaces/inkscape" version="1.1" x="0px" y="0px" viewBox="0 0 100 100"><g transform="translate(0,-952.36218)"><path style="text-indent:0;text-transform:none;direction:ltr;block-progression:tb;baseline-shift:baseline;color:#000000;enable-background:accumulate;" d="m 84.999999,964.3753 c 4.397411,0 8.000001,3.60259 8.000001,8 l 0,40 c 0,4.3974 -3.60259,8 -8.000001,8 l -8.968749,0 1.8125,17.7812 c 0.0727,0.8049 -0.39622,1.6315 -1.12438,1.9821 -0.72815,0.3506 -1.66673,0.2017 -2.25062,-0.3571 L 55,1020.3753 l -7,0 0,3.0625 c 0,3.263 -2.70421,5.9375 -5.96875,5.9375 l -15.03125,0 -10.59375,10.4062 c -0.59983,0.5941 -1.59449,0.7418 -2.34108,0.3478 -0.7466,-0.3941 -1.18588,-1.2986 -1.03392,-2.129 l 1.53125,-8.625 -1.59375,0 C 9.70421,1029.3753 7,1026.7008 7,1023.4378 l 0,-19.125 c 0,-3.263 2.70421,-5.9375 5.96875,-5.9375 l 6.03125,0 0,-26 c 0,-4.39741 3.60259,-8 8,-8 z m 0,4 -57.999999,0 c -2.25061,0 -4,1.74939 -4,4 l 0,40 c 0,2.2506 1.74939,4 4,4 l 28.8125,0 c 0.51776,0 1.0341,0.2025 1.40625,0.5625 l 16.09375,16.0312 -1.5,-14.4062 c -0.1042,-1.1078 0.88731,-2.1923 2,-2.1875 l 11.1875,0 c 2.25061,0 4,-1.7494 4,-4 l 0,-40 c 0,-2.25061 -1.74939,-4 -4,-4 z m -6.999999,9 c 1.10457,0 2,0.8954 2,2 0,1.1046 -0.89543,2 -2,2 l -44,0 c -1.10457,0 -2,-0.8954 -2,-2 0,-1.1046 0.89543,-2 2,-2 z m 0,13 c 1.10457,0 2,0.8954 2,2 0,1.1046 -0.89543,2 -2,2 l -44,0 c -1.10457,0 -2,-0.8954 -2,-2 0,-1.1046 0.89543,-2 2,-2 z m -59,12 -6.03125,0 c -1.12788,0 -1.96875,0.8449 -1.96875,1.9375 l 0,19.125 c 0,1.0926 0.84087,1.9375 1.96875,1.9375 l 3.96875,0 c 1.16181,0 2.1683,1.1992 1.96875,2.3437 l -0.84375,4.8438 6.71875,-6.625 c 0.37215,-0.36 0.88849,-0.5665 1.40625,-0.5625 l 15.84375,0 c 1.1279,0 1.96875,-0.8449 1.96875,-1.9375 l 0,-3.0625 -17,0 c -4.39741,0 -8,-3.6026 -8,-8 z m 59,1 c 1.10457,0 2,0.8954 2,2 0,1.1046 -0.89543,2 -2,2 l -44,0 c -1.10457,0 -2,-0.8954 -2,-2 0,-1.1046 0.89543,-2 2,-2 z"  fill-opacity="1" stroke="none" marker="none" visibility="visible" display="inline" overflow="visible"></path></g></svg></svg><svg x="82.96267748635914" y="0" fill="#000" ><svg x="0" y="0" ><svg x="0" y="0" fill="#000" ><path d="M8.564 22.655L8.564 22.655L8.564 22.655Q6.440 22.655 4.441 21.820L4.441 21.820L4.441 21.820Q2.441 20.985 0.800 19.301L0.800 19.301L3.335 16.180L3.335 16.180Q3.921 16.854 4.602 17.367L4.602 17.367L4.602 17.367Q5.283 17.880 5.964 18.202L5.964 18.202L5.964 18.202Q6.645 18.524 7.319 18.685L7.319 18.685L7.319 18.685Q7.993 18.846 8.637 18.846L8.637 18.846L8.637 18.846Q9.633 18.846 10.329 18.553L10.329 18.553L10.329 18.553Q11.025 18.260 11.362 17.762L11.362 17.762L11.362 17.762Q11.699 17.264 11.699 16.591L11.699 16.591L11.699 16.591Q11.699 16.122 11.552 15.756L11.552 15.756L11.552 15.756Q11.406 15.389 11.150 15.111L11.150 15.111L11.150 15.111Q10.893 14.833 10.402 14.562L10.402 14.562L10.402 14.562Q9.912 14.291 9.384 14.078L9.384 14.078L9.384 14.078Q8.857 13.866 7.993 13.573L7.993 13.573L7.993 13.573Q7.216 13.295 6.616 13.060L6.616 13.060L6.616 13.060Q6.015 12.826 5.312 12.467L5.312 12.467L5.312 12.467Q4.609 12.108 4.096 11.749L4.096 11.749L4.096 11.749Q3.584 11.390 3.078 10.885L3.078 10.885L3.078 10.885Q2.573 10.380 2.258 9.816L2.258 9.816L2.258 9.816Q1.943 9.252 1.745 8.512L1.745 8.512L1.745 8.512Q1.548 7.772 1.548 6.937L1.548 6.937L1.548 6.937Q1.548 5.253 2.456 3.861L2.456 3.861L2.456 3.861Q3.364 2.469 4.931 1.671L4.931 1.671L4.931 1.671Q6.499 0.873 8.388 0.844L8.388 0.844L8.388 0.844Q12.256 0.800 15.566 3.524L15.566 3.524L13.134 6.703L13.134 6.703Q10.571 4.608 8.491 4.608L8.491 4.608L8.491 4.608Q7.363 4.608 6.652 5.179L6.652 5.179L6.652 5.179Q5.942 5.751 5.927 6.747L5.927 6.747L5.927 6.747Q5.927 7.142 6.074 7.465L6.074 7.465L6.074 7.465Q6.220 7.787 6.469 8.043L6.469 8.043L6.469 8.043Q6.718 8.300 7.209 8.571L7.209 8.571L7.209 8.571Q7.700 8.842 8.191 9.054L8.191 9.054L8.191 9.054Q8.681 9.266 9.516 9.589L9.516 9.589L9.516 9.589Q9.663 9.647 9.941 9.750L9.941 9.750L9.941 9.750Q10.923 10.131 11.399 10.328L11.399 10.328L11.399 10.328Q11.875 10.526 12.666 10.907L12.666 10.907L12.666 10.907Q13.457 11.288 13.845 11.581L13.845 11.581L13.845 11.581Q14.233 11.874 14.753 12.357L14.753 12.357L14.753 12.357Q15.273 12.841 15.515 13.353L15.515 13.353L15.515 13.353Q15.757 13.866 15.932 14.562L15.932 14.562L15.932 14.562Q16.108 15.258 16.108 16.093L16.108 16.093L16.108 16.093Q16.108 17.440 15.654 18.561L15.654 18.561L15.654 18.561Q15.200 19.681 14.453 20.421L14.453 20.421L14.453 20.421Q13.706 21.161 12.717 21.681L12.717 21.681L12.717 21.681Q11.728 22.201 10.688 22.428L10.688 22.428L10.688 22.428Q9.648 22.655 8.564 22.655ZM28.473 22.626L28.473 22.626L28.473 22.626Q26.715 22.626 25.103 22.186L25.103 22.186L25.103 22.186Q23.492 21.747 22.130 20.839L22.130 20.839L22.130 20.839Q20.767 19.930 19.764 18.663L19.764 18.663L19.764 18.663Q18.761 17.396 18.189 15.638L18.189 15.638L18.189 15.638Q17.618 13.881 17.618 11.815L17.618 11.815L17.618 11.815Q17.618 9.984 18.072 8.336L18.072 8.336L18.072 8.336Q18.526 6.688 19.442 5.326L19.442 5.326L19.442 5.326Q20.357 3.964 21.639 2.960L21.639 2.960L21.639 2.960Q22.921 1.957 24.671 1.400L24.671 1.400L24.671 1.400Q26.422 0.844 28.473 0.844L28.473 0.844L28.473 0.844Q29.981 0.844 31.446 1.254L31.446 1.254L31.446 1.254Q32.911 1.664 34.369 2.601L34.369 2.601L34.369 2.601Q35.826 3.539 36.954 4.930L36.954 4.930L33.863 7.567L33.863 7.567Q32.867 6.366 31.461 5.612L31.461 5.612L31.461 5.612Q30.055 4.857 28.473 4.857L28.473 4.857L28.473 4.857Q27.681 4.857 26.949 5.018L26.949 5.018L26.949 5.018Q26.217 5.179 25.572 5.494L25.572 5.494L25.572 5.494Q24.928 5.809 24.378 6.256L24.378 6.256L24.378 6.256Q23.829 6.703 23.397 7.289L23.397 7.289L23.397 7.289Q22.965 7.875 22.657 8.571L22.657 8.571L22.657 8.571Q22.349 9.266 22.188 10.087L22.188 10.087L22.188 10.087Q22.027 10.907 22.027 11.815L22.027 11.815L22.027 11.815Q22.027 13.778 22.840 15.331L22.840 15.331L22.840 15.331Q23.653 16.884 25.125 17.755L25.125 17.755L25.125 17.755Q26.598 18.627 28.473 18.627L28.473 18.627L28.473 18.627Q30.069 18.627 31.475 17.894L31.475 17.894L31.475 17.894Q32.882 17.162 33.863 15.931L33.863 15.931L36.954 18.583L36.954 18.583Q35.489 20.414 33.321 21.520L33.321 21.520L33.321 21.520Q31.153 22.626 28.473 22.626ZM43.283 22.406L39.050 22.406L39.050 1.093L43.283 1.093L43.283 10.321L51.999 10.321L51.999 1.093L56.247 1.093L56.247 22.406L51.999 22.406L51.999 14.086L43.283 14.086L43.283 22.406ZM69.710 22.655L69.710 22.655L69.710 22.655Q67.323 22.655 65.294 21.835L65.294 21.835L65.294 21.835Q63.265 21.014 61.851 19.579L61.851 19.579L61.851 19.579Q60.438 18.143 59.639 16.114L59.639 16.114L59.639 16.114Q58.841 14.086 58.841 11.742L58.841 11.742L58.841 11.742Q58.841 9.398 59.639 7.377L59.639 7.377L59.639 7.377Q60.438 5.355 61.851 3.920L61.851 3.920L61.851 3.920Q63.265 2.484 65.301 1.664L65.301 1.664L65.301 1.664Q67.337 0.844 69.710 0.844L69.710 0.844L69.710 0.844Q72.039 0.844 74.039 1.642L74.039 1.642L74.039 1.642Q76.038 2.440 77.474 3.854L77.474 3.854L77.474 3.854Q78.909 5.267 79.730 7.303L79.730 7.303L79.730 7.303Q80.550 9.340 80.550 11.742L80.550 11.742L80.550 11.742Q80.550 14.144 79.730 16.188L79.730 16.188L79.730 16.188Q78.909 18.231 77.474 19.645L77.474 19.645L77.474 19.645Q76.038 21.058 74.039 21.857L74.039 21.857L74.039 21.857Q72.039 22.655 69.710 22.655M69.725 18.729L69.725 18.729L69.725 18.729Q71.087 18.729 72.281 18.202L72.281 18.202L72.281 18.202Q73.475 17.675 74.332 16.752L74.332 16.752L74.332 16.752Q75.189 15.829 75.679 14.525L75.679 14.525L75.679 14.525Q76.170 13.221 76.170 11.742L76.170 11.742L76.170 11.742Q76.170 9.764 75.328 8.168L75.328 8.168L75.328 8.168Q74.486 6.571 73.013 5.677L73.013 5.677L73.013 5.677Q71.541 4.784 69.725 4.784L69.725 4.784L69.725 4.784Q67.850 4.784 66.356 5.714L66.356 5.714L66.356 5.714Q64.862 6.644 64.049 8.234L64.049 8.234L64.049 8.234Q63.236 9.823 63.236 11.742L63.236 11.742L63.236 11.742Q63.236 13.676 64.049 15.265L64.049 15.265L64.049 15.265Q64.862 16.854 66.356 17.792L66.356 17.792L66.356 17.792Q67.850 18.729 69.725 18.729ZM93.149 22.655L93.149 22.655L93.149 22.655Q90.761 22.655 88.732 21.835L88.732 21.835L88.732 21.835Q86.704 21.014 85.290 19.579L85.290 19.579L85.290 19.579Q83.876 18.143 83.078 16.114L83.078 16.114L83.078 16.114Q82.280 14.086 82.280 11.742L82.280 11.742L82.280 11.742Q82.280 9.398 83.078 7.377L83.078 7.377L83.078 7.377Q83.876 5.355 85.290 3.920L85.290 3.920L85.290 3.920Q86.704 2.484 88.740 1.664L88.740 1.664L88.740 1.664Q90.776 0.844 93.149 0.844L93.149 0.844L93.149 0.844Q95.478 0.844 97.477 1.642L97.477 1.642L97.477 1.642Q99.477 2.440 100.913 3.854L100.913 3.854L100.913 3.854Q102.348 5.267 103.168 7.303L103.168 7.303L103.168 7.303Q103.989 9.340 103.989 11.742L103.989 11.742L103.989 11.742Q103.989 14.144 103.168 16.188L103.168 16.188L103.168 16.188Q102.348 18.231 100.913 19.645L100.913 19.645L100.913 19.645Q99.477 21.058 97.477 21.857L97.477 21.857L97.477 21.857Q95.478 22.655 93.149 22.655M93.164 18.729L93.164 18.729L93.164 18.729Q94.526 18.729 95.720 18.202L95.720 18.202L95.720 18.202Q96.914 17.675 97.770 16.752L97.770 16.752L97.770 16.752Q98.627 15.829 99.118 14.525L99.118 14.525L99.118 14.525Q99.609 13.221 99.609 11.742L99.609 11.742L99.609 11.742Q99.609 9.764 98.767 8.168L98.767 8.168L98.767 8.168Q97.924 6.571 96.452 5.677L96.452 5.677L96.452 5.677Q94.980 4.784 93.164 4.784L93.164 4.784L93.164 4.784Q91.289 4.784 89.794 5.714L89.794 5.714L89.794 5.714Q88.300 6.644 87.487 8.234L87.487 8.234L87.487 8.234Q86.674 9.823 86.674 11.742L86.674 11.742L86.674 11.742Q86.674 13.676 87.487 15.265L87.487 15.265L87.487 15.265Q88.300 16.854 89.794 17.792L89.794 17.792L89.794 17.792Q91.289 18.729 93.164 18.729ZM120.294 22.406L106.597 22.406L106.597 1.093L110.816 1.093L110.816 18.641L120.294 18.641L120.294 22.406Z" ></path></svg><svg x="0" y="30.634443204365084" fill="#000" ><path d="M5.033 22.113L0.800 22.113L0.800 0.800L5.033 0.800L5.033 10.028L13.749 10.028L13.749 0.800L17.997 0.800L17.997 22.113L13.749 22.113L13.749 13.793L5.033 13.793L5.033 22.113ZM35.708 22.113L21.455 22.113L21.455 0.800L35.078 0.800L35.078 4.579L25.615 4.579L25.615 9.691L33.203 9.691L33.203 13.412L25.615 13.412L25.615 18.348L35.708 18.348L35.708 22.113ZM51.954 22.113L38.258 22.113L38.258 0.800L42.477 0.800L42.477 18.348L51.954 18.348L51.954 22.113ZM58.196 22.113L54.036 22.113L54.036 0.800L61.917 0.800L61.917 0.800Q63.806 0.800 65.249 1.327L65.249 1.327L65.249 1.327Q66.692 1.854 67.571 2.821L67.571 2.821L67.571 2.821Q68.450 3.788 68.889 5.062L68.889 5.062L68.889 5.062Q69.329 6.337 69.329 7.904L69.329 7.904L69.329 7.904Q69.329 9.633 68.772 10.951L68.772 10.951L68.772 10.951Q68.215 12.269 67.183 13.119L67.183 13.119L67.183 13.119Q66.150 13.968 64.722 14.393L64.722 14.393L64.722 14.393Q63.293 14.818 61.521 14.818L61.521 14.818L58.196 14.818L58.196 22.113M58.196 4.550L58.196 11.083L60.994 11.083L60.994 11.083Q62.927 11.083 63.945 10.204L63.945 10.204L63.945 10.204Q64.963 9.325 64.963 7.816L64.963 7.816L64.963 7.816Q64.963 6.307 63.975 5.428L63.975 5.428L63.975 5.428Q62.986 4.550 61.169 4.550L61.169 4.550L58.196 4.550ZM85.795 22.113L71.542 22.113L71.542 0.800L85.165 0.800L85.165 4.579L75.702 4.579L75.702 9.691L83.290 9.691L83.290 13.412L75.702 13.412L75.702 18.348L85.795 18.348L85.795 22.113ZM99.463 14.379L104.722 22.113L99.727 22.113L94.951 14.818L92.505 14.818L92.505 22.113L88.345 22.113L88.345 0.800L96.401 0.800L96.401 0.800Q98.276 0.800 99.719 1.327L99.719 1.327L99.719 1.327Q101.162 1.854 102.048 2.821L102.048 2.821L102.048 2.821Q102.935 3.788 103.381 5.062L103.381 5.062L103.381 5.062Q103.828 6.337 103.828 7.904L103.828 7.904L103.828 7.904Q103.828 9.574 103.293 10.870L103.293 10.870L103.293 10.870Q102.759 12.167 101.799 13.016L101.799 13.016L101.799 13.016Q100.840 13.866 99.463 14.320L99.463 14.320L99.463 14.379M95.640 4.550L92.505 4.550L92.505 11.097L95.464 11.097L95.464 11.097Q97.383 11.097 98.423 10.211L98.423 10.211L98.423 10.211Q99.463 9.325 99.463 7.816L99.463 7.816L99.463 7.816Q99.463 6.307 98.459 5.428L98.459 5.428L98.459 5.428Q97.456 4.550 95.640 4.550L95.640 4.550Z" ></path></svg></svg></svg></svg>